<?xml version="1.0" standalone="no"?>
<!DOCTYPE svg PUBLIC "-//W3C//DTD SVG 20010904//EN"
 "http://www.w3.org/TR/2001/REC-SVG-20010904/DTD/svg10.dtd">
<svg version="1.0" xmlns="http://www.w3.org/2000/svg"
 width="417.000000pt" height="417.000000pt" viewBox="0 0 417.000000 417.000000"
 preserveAspectRatio="xMidYMid meet">
<metadata>
Created by potrace 1.11, written by Peter Selinger 2001-2013
</metadata>
<g transform="translate(0.000000,417.000000) scale(0.100000,-0.100000)"
fill="#000000" stroke="none">
<path d="M1315 3618 c-16 -6 -41 -16 -53 -22 l-24 -10 24 -7 c12 -4 34 -10 48
-13 30 -6 99 -89 78 -94 -20 -4 -36 -50 -41 -122 -7 -95 -26 -149 -68 -189
-139 -136 -119 -124 -180 -116 -52 6 -58 5 -100 -27 -24 -19 -51 -32 -58 -30
-11 4 -12 -8 -6 -62 6 -59 17 -104 72 -301 7 -27 16 -75 19 -105 l6 -56 -53
-48 c-76 -68 -89 -75 -158 -87 -58 -9 -147 -50 -230 -106 -19 -13 -46 -23 -61
-23 -44 0 -132 -30 -176 -61 -75 -51 -86 -105 -60 -280 17 -113 26 -149 35
-149 4 0 8 -19 8 -42 0 -24 18 -95 40 -158 80 -229 213 -456 358 -611 l46 -49
1014 0 1014 0 -14 41 c-8 23 -15 51 -15 62 0 11 -9 34 -19 51 -10 17 -29 64
-40 104 -12 39 -25 72 -29 72 -13 0 -102 165 -102 188 0 8 -14 19 -30 25 -20
8 -33 20 -36 37 -3 14 -14 54 -24 90 -10 36 -24 85 -30 110 -25 101 -43 157
-63 195 -12 22 -24 70 -27 108 -8 80 -23 99 -100 134 -30 14 -77 35 -105 48
-27 12 -72 27 -100 34 -63 14 -126 42 -123 52 6 18 452 499 462 499 6 0 16 -8
23 -19 6 -10 138 -188 294 -397 155 -208 282 -384 283 -392 1 -9 -53 -35 -152
-74 -99 -39 -156 -67 -163 -80 -17 -32 10 -61 77 -79 32 -9 142 -40 244 -69
102 -28 208 -58 235 -65 74 -20 293 -82 349 -99 73 -22 112 9 88 72 -6 15 -27
88 -48 162 -20 74 -49 180 -65 235 -16 55 -54 190 -84 300 -31 110 -61 205
-67 212 -13 17 -53 17 -66 1 -6 -7 -33 -71 -62 -143 -28 -71 -55 -133 -59
-138 -4 -4 -26 21 -48 55 -156 242 -688 1044 -697 1050 -6 4 -20 8 -32 8 -21
0 -53 -34 -419 -436 -66 -73 -126 -133 -132 -133 -7 -1 -19 12 -27 28 -14 26
-13 34 4 85 11 30 20 64 20 74 0 11 7 32 14 48 14 27 38 145 31 152 -2 2 -15
-19 -31 -47 -15 -28 -31 -51 -35 -51 -4 0 -9 -10 -11 -22 -3 -22 -8 -23 -78
-23 -57 0 -77 -3 -82 -15 -11 -25 -9 -78 3 -86 8 -4 2 -12 -15 -21 -14 -7 -26
-20 -26 -27 0 -10 20 -12 85 -9 65 2 85 0 85 -10 0 -7 -13 -51 -28 -97 -26
-78 -31 -85 -61 -93 -39 -10 -51 -1 -105 78 -40 57 -41 77 -3 68 21 -5 21 -5
4 13 -15 17 -19 17 -27 4 -26 -42 -86 55 -99 161 -5 41 -28 146 -51 234 -38
146 -41 168 -36 250 2 50 9 106 15 126 16 51 73 106 119 115 35 7 35 8 12 15
-38 11 -241 8 -275 -3z m545 -792 c0 -6 -4 -17 -9 -25 -8 -12 -14 -13 -36 -3
l-26 12 23 30 c21 29 24 30 35 14 7 -10 13 -23 13 -28z m-189 -462 c53 -84 59
-100 32 -89 -27 11 -76 25 -78 22 -2 -2 7 -168 20 -394 5 -75 4 -123 -2 -123
-5 0 -25 28 -45 63 -33 57 -36 67 -32 127 2 36 5 75 6 88 2 19 -4 26 -37 38
-46 16 -93 18 -115 4 -12 -8 -12 -10 3 -16 10 -3 24 -19 32 -35 19 -35 20 -92
3 -87 -34 11 -250 309 -235 324 2 2 17 -1 33 -6 16 -5 45 -13 64 -17 34 -8 86
-66 75 -83 -3 -4 2 -11 11 -14 18 -7 63 36 107 104 16 23 37 45 48 47 18 5 24
20 43 107 8 34 6 37 67 -60z m-101 -524 c0 -5 -4 -10 -10 -10 -5 0 -10 5 -10
10 0 6 5 10 10 10 6 0 10 -4 10 -10z m-579 -502 c66 -71 119 -147 108 -154 -7
-4 -16 0 -21 9 -5 9 -24 19 -43 23 -39 7 -78 57 -89 117 -9 47 5 48 45 5z
m1185 -234 c82 -26 116 -50 140 -96 21 -40 17 -64 -14 -99 -27 -30 -30 -31
-65 -20 -20 7 -41 9 -47 6 -7 -4 -14 2 -17 14 -3 12 -12 20 -21 19 -11 -2 -19
9 -25 32 -5 19 -20 65 -33 103 -28 79 -29 78 82 41z"/>
<path d="M1573 3265 c-41 -41 -38 -54 8 -31 41 20 46 20 76 -4 14 -11 29 -17
34 -14 5 3 18 0 29 -6 16 -8 22 -8 26 4 14 37 -47 86 -107 86 -22 0 -41 -10
-66 -35z"/>
<path d="M1874 3256 c-41 -18 -63 -76 -29 -76 8 0 15 7 15 15 0 9 9 15 23 15
20 -1 21 -2 5 -14 -23 -17 -23 -43 1 -55 14 -8 23 -5 40 13 23 24 26 51 11 90
-11 29 -22 31 -66 12z"/>
<path d="M1599 3194 c-11 -14 -10 -18 5 -30 13 -9 24 -10 37 -3 22 11 24 20 7
37 -16 16 -33 15 -49 -4z"/>
<path d="M1740 801 c-86 -18 -114 -55 -114 -150 -1 -88 17 -117 106 -181 88
-63 98 -75 98 -114 0 -40 -13 -59 -36 -54 -15 2 -20 14 -22 56 l-3 52 -70 0
-69 0 0 -50 c0 -74 21 -115 71 -141 86 -44 224 -19 259 46 19 35 17 149 -3
196 -11 27 -38 53 -98 96 -81 57 -84 61 -84 99 0 32 3 39 20 39 16 0 21 -8 23
-37 l3 -38 70 0 69 0 0 48 c0 26 -6 58 -13 71 -24 47 -128 79 -207 62z"/>
<path d="M485 788 c-3 -7 -4 -141 -3 -298 l3 -285 62 -3 62 -3 3 128 3 128 28
-90 c15 -49 34 -106 40 -125 l13 -35 64 0 65 0 3 298 2 297 -65 0 -64 0 -3
-127 -3 -128 -40 125 -41 125 -62 3 c-44 2 -64 -1 -67 -10z"/>
<path d="M3025 787 c-3 -7 -4 -140 -3 -297 l3 -285 73 -3 72 -3 0 88 c0 102
11 100 34 -9 l17 -78 64 0 c35 0 66 4 69 8 3 5 -13 72 -34 149 l-40 140 30 89
c17 48 30 91 30 96 0 4 -27 8 -59 8 l-60 0 -17 -55 c-10 -30 -21 -55 -26 -55
-4 0 -8 50 -8 110 l0 110 -70 0 c-48 0 -72 -4 -75 -13z"/>
<path d="M1280 725 c0 -24 -6 -37 -20 -45 -13 -7 -20 -21 -20 -41 0 -22 5 -32
20 -36 19 -5 20 -14 20 -175 0 -93 4 -178 10 -188 13 -24 62 -40 126 -40 l54
0 0 40 c0 33 -4 40 -19 40 -28 0 -31 18 -31 176 0 137 1 144 20 144 17 0 20 7
20 40 0 33 -3 40 -20 40 -17 0 -20 7 -20 40 l0 40 -70 0 -70 0 0 -35z"/>
<path d="M2030 720 c0 -29 -4 -40 -15 -40 -11 0 -15 -11 -15 -40 0 -29 4 -40
15 -40 13 0 15 -26 15 -174 0 -149 2 -177 17 -191 24 -25 58 -35 119 -35 l54
0 0 39 c0 29 -5 40 -18 44 -25 6 -32 46 -32 188 0 118 0 120 25 129 19 7 25
17 25 40 0 23 -6 33 -25 40 -20 8 -25 16 -25 45 l0 35 -70 0 -70 0 0 -40z"/>
<path d="M990 690 c-55 -14 -97 -67 -105 -135 -12 -94 -1 -269 18 -299 48 -72
202 -83 270 -18 38 36 47 78 47 216 0 141 -18 193 -75 220 -42 20 -110 27
-155 16z m78 -242 c-3 -137 -5 -163 -18 -163 -13 0 -15 25 -18 150 -3 160 -1
175 23 175 13 0 15 -21 13 -162z"/>
<path d="M2347 686 c-89 -33 -102 -64 -102 -246 1 -163 10 -197 68 -226 45
-24 155 -23 197 2 59 35 70 70 70 234 0 161 -10 194 -68 224 -44 23 -121 28
-165 12z m87 -98 c3 -13 6 -77 6 -143 0 -66 -3 -130 -6 -142 -7 -26 -29 -30
-38 -7 -8 20 -8 278 0 298 9 23 31 19 38 -6z"/>
<path d="M2822 680 c-39 -24 -42 -24 -42 -5 0 12 -15 15 -75 15 l-75 0 2 -242
3 -243 70 0 70 0 5 200 c4 174 7 200 21 203 25 5 29 -26 29 -225 l0 -183 70 0
70 0 0 216 c0 135 -4 223 -11 236 -10 19 -65 48 -91 48 -7 0 -28 -9 -46 -20z"/>
<path d="M3475 691 c-77 -20 -98 -48 -98 -133 0 -74 15 -96 105 -150 71 -42
73 -44 73 -83 0 -33 -3 -40 -20 -40 -16 0 -21 8 -25 45 l-5 45 -60 0 -60 0 -3
-42 c-2 -24 3 -55 12 -71 43 -84 243 -87 287 -5 8 14 14 52 14 84 0 71 -19 99
-95 141 -30 16 -63 37 -72 45 -23 20 -24 71 -2 80 20 7 34 -13 34 -50 0 -28 0
-28 63 -25 59 3 62 4 65 29 5 40 -23 96 -56 113 -36 19 -117 27 -157 17z"/>
</g>
</svg>
